<?xml version="1.0" standalone="no"?>
<!DOCTYPE svg PUBLIC "-//W3C//DTD SVG 20010904//EN"
 "http://www.w3.org/TR/2001/REC-SVG-20010904/DTD/svg10.dtd">
<svg version="1.0" xmlns="http://www.w3.org/2000/svg"
 width="512.000000pt" height="512.000000pt" viewBox="0 0 512.000000 512.000000"
 preserveAspectRatio="xMidYMid meet">

<g transform="translate(0.000000,512.000000) scale(0.100000,-0.100000)"
fill="#000000" stroke="none">
<path d="M585 5113 c-197 -26 -409 -177 -502 -358 -86 -167 -78 53 -78 -2195
0 -1909 1 -1998 18 -2055 70 -228 244 -403 477 -482 53 -17 140 -18 2015 -21
1347 -2 1982 1 2029 8 253 39 473 236 553 495 17 57 18 146 18 2055 0 1909 -1
1998 -18 2055 -79 256 -298 454 -547 494 -62 10 -3891 14 -3965 4z m3960 -248
c152 -40 280 -168 319 -320 14 -52 16 -277 16 -1985 0 -2126 4 -1987 -63
-2098 -37 -62 -103 -127 -167 -165 -104 -60 18 -57 -2090 -57 -1840 0 -1928 1
-1992 18 -151 42 -273 166 -312 317 -14 52 -16 277 -16 1985 0 1708 2 1933 16
1985 38 149 160 274 308 316 57 16 180 18 1991 18 1709 1 1938 -1 1990 -14z"/>
<path d="M2520 3923 c-63 -27 -1111 -641 -1132 -664 l-28 -29 0 -670 0 -670
28 -29 c15 -16 275 -173 577 -347 499 -289 554 -318 595 -318 41 0 95 29 595
317 303 175 562 331 578 348 l27 29 0 670 0 670 -27 29 c-16 17 -275 173 -577
347 -539 310 -591 336 -636 317z m454 -490 c226 -130 414 -239 419 -243 4 -4
-181 -116 -412 -249 l-420 -242 -420 242 c-231 134 -419 244 -417 246 4 5 831
482 835 483 2 0 189 -106 415 -237z m-911 -725 c408 -237 456 -262 497 -262
41 0 88 25 498 262 249 144 455 262 458 262 2 0 4 -218 4 -484 l0 -483 -480
-277 -479 -277 -481 277 -480 277 0 483 c0 266 2 484 5 484 3 0 209 -118 458
-262z"/>
</g>
</svg>
