<?xml version="1.0" standalone="no"?>
<!DOCTYPE svg PUBLIC "-//W3C//DTD SVG 20010904//EN"
 "http://www.w3.org/TR/2001/REC-SVG-20010904/DTD/svg10.dtd">
<svg version="1.0" xmlns="http://www.w3.org/2000/svg"
 width="512.000000pt" height="512.000000pt" viewBox="0 0 512.000000 512.000000"
 preserveAspectRatio="xMidYMid meet">

<g transform="translate(0.000000,512.000000) scale(0.100000,-0.100000)"
fill="#000000" stroke="none">
<path d="M585 5113 c-197 -26 -409 -177 -502 -358 -86 -167 -78 53 -78 -2195
0 -1909 1 -1998 18 -2055 70 -228 244 -403 477 -482 53 -17 140 -18 2015 -21
1347 -2 1982 1 2029 8 253 39 473 236 553 495 17 57 18 146 18 2055 0 1909 -1
1998 -18 2055 -79 256 -298 454 -547 494 -62 10 -3891 14 -3965 4z m3960 -248
c152 -40 280 -168 319 -320 14 -52 16 -277 16 -1985 0 -2126 4 -1987 -63
-2098 -37 -62 -103 -127 -167 -165 -104 -60 18 -57 -2090 -57 -1840 0 -1928 1
-1992 18 -151 42 -273 166 -312 317 -14 52 -16 277 -16 1985 0 1708 2 1933 16
1985 38 149 160 274 308 316 57 16 180 18 1991 18 1709 1 1938 -1 1990 -14z"/>
<path d="M2005 3698 c-291 -129 -541 -239 -553 -247 -50 -27 -52 -48 -52 -508
0 -235 5 -468 10 -517 33 -281 224 -595 512 -842 204 -174 558 -394 634 -394
32 0 191 82 331 171 169 107 284 198 419 333 217 218 329 413 389 676 15 63
18 148 22 537 4 417 3 464 -12 496 -9 20 -26 42 -38 50 -49 31 -1065 470
-1097 474 -29 3 -127 -36 -565 -229z m1024 -224 l453 -199 -5 -405 c-4 -374
-6 -411 -26 -489 -84 -326 -362 -633 -799 -881 -108 -61 -92 -63 -250 33 -381
232 -621 497 -729 802 l-28 80 -3 430 -3 430 458 202 c252 111 463 200 468
198 6 -1 215 -92 464 -201z"/>
<path d="M3195 3149 c-20 -6 -146 -124 -380 -359 l-350 -350 -155 155 c-162
161 -204 190 -260 179 -38 -8 -86 -54 -93 -90 -11 -60 8 -84 236 -312 211
-210 225 -222 261 -222 20 0 49 6 64 14 47 25 820 808 827 839 16 63 -16 123
-78 146 -32 12 -31 12 -72 0z"/>
</g>
</svg>
