<?xml version="1.0" standalone="no"?>
<!DOCTYPE svg PUBLIC "-//W3C//DTD SVG 20010904//EN"
 "http://www.w3.org/TR/2001/REC-SVG-20010904/DTD/svg10.dtd">
<svg version="1.0" xmlns="http://www.w3.org/2000/svg"
 width="512.000000pt" height="512.000000pt" viewBox="0 0 512.000000 512.000000"
 preserveAspectRatio="xMidYMid meet">

<g transform="translate(0.000000,512.000000) scale(0.100000,-0.100000)"
fill="#000000" stroke="none">
<path d="M751 4769 c-93 -18 -185 -98 -216 -188 -10 -27 -19 -95 -22 -168 l-6
-121 -126 -4 c-107 -3 -133 -7 -173 -26 -121 -59 -195 -170 -205 -305 -5 -71
-4 -77 20 -101 31 -31 66 -33 98 -7 18 14 24 33 30 92 10 86 42 141 104 176
35 20 55 23 148 23 l107 0 0 -77 c0 -95 16 -195 36 -235 80 -155 279 -210 426
-117 102 65 138 148 138 314 l0 115 194 0 194 0 4 -132 c3 -125 5 -136 33
-187 56 -101 145 -154 260 -154 116 0 214 58 265 160 22 42 25 63 28 181 l4
132 194 0 194 0 0 -101 c0 -193 49 -286 180 -347 146 -68 324 1 391 153 18 40
23 75 27 173 l5 122 188 0 189 0 0 -83 c0 -95 15 -188 37 -232 76 -151 279
-206 425 -114 102 65 138 148 138 315 l0 116 118 -4 c106 -3 122 -6 154 -27
89 -61 99 -110 96 -441 l-3 -255 -2137 -3 -2138 -2 0 109 c0 122 -10 146 -67
157 -26 5 -37 1 -58 -20 l-25 -25 2 -1348 3 -1348 33 -67 c36 -74 91 -129 168
-168 l49 -25 1379 -3 1379 -2 47 -40 c242 -203 592 -310 913 -280 226 22 482
117 622 232 43 36 48 82 12 116 -33 31 -64 27 -125 -14 -67 -45 -190 -105
-267 -132 -221 -75 -490 -75 -710 0 -385 131 -670 464 -740 862 -104 598 295
1170 894 1282 106 20 300 20 402 0 438 -85 771 -404 881 -843 19 -74 22 -115
22 -253 -1 -144 -4 -177 -26 -260 -37 -139 -83 -239 -165 -364 -79 -119 -85
-142 -41 -178 50 -43 90 -18 176 109 238 352 276 824 97 1218 -86 187 -223
361 -377 475 l-47 35 -1 640 c0 352 -4 668 -9 702 -19 128 -92 231 -201 282
-49 23 -70 26 -182 29 l-128 4 0 118 c0 143 -19 206 -81 270 -113 117 -293
125 -412 20 -78 -68 -107 -156 -107 -322 l0 -88 -189 0 -188 0 -5 128 c-5 148
-23 201 -90 269 -56 57 -126 86 -209 86 -119 0 -217 -63 -268 -173 -22 -48
-26 -71 -29 -183 l-4 -127 -192 2 -191 3 -5 135 c-4 116 -8 141 -28 180 -96
183 -331 221 -475 77 -65 -65 -81 -113 -87 -262 l-5 -130 -192 -3 -193 -2 0
120 c0 135 -15 190 -69 259 -59 74 -191 120 -290 100z m145 -170 c61 -37 64
-55 64 -381 0 -336 -2 -344 -81 -386 -74 -40 -149 -17 -194 59 -19 32 -20 52
-20 329 0 261 2 299 17 327 19 33 60 67 93 76 31 8 87 -3 121 -24z m961 11
c25 -11 51 -33 63 -52 19 -31 20 -50 20 -336 0 -331 -1 -340 -58 -381 -47 -33
-100 -36 -151 -9 -79 41 -81 49 -81 386 0 352 3 364 97 398 50 17 60 17 110
-6z m1002 -9 c14 -9 34 -30 45 -45 20 -26 21 -40 21 -336 0 -296 -1 -310 -21
-336 -37 -50 -72 -69 -124 -69 -52 0 -87 19 -124 69 -20 26 -21 43 -24 309 -2
155 0 297 3 315 8 42 58 99 99 111 40 13 94 5 125 -18z m983 1 c14 -8 36 -32
47 -52 20 -36 21 -52 21 -332 0 -336 -2 -344 -81 -386 -74 -40 -149 -17 -194
59 -18 31 -20 55 -23 306 -2 183 1 285 8 315 13 46 65 104 102 111 34 7 89 -3
120 -21z m-2962 -1697 l0 -355 -365 0 -365 0 0 355 0 355 365 0 365 0 0 -355z
m890 0 l0 -355 -365 0 -365 0 0 355 0 355 365 0 365 0 0 -355z m890 0 l0 -355
-370 0 -370 0 0 355 0 355 370 0 370 0 0 -355z m880 137 l0 -218 -57 -18
c-138 -43 -265 -109 -389 -203 l-70 -53 -107 0 -107 0 0 355 0 355 365 0 365
0 0 -218z m890 -42 c0 -289 3 -277 -68 -241 -53 27 -185 67 -283 86 -55 11
-136 16 -236 16 l-153 0 0 200 0 199 370 0 370 0 0 -260z m-3550 -960 l0 -360
-365 0 -365 0 0 360 0 360 365 0 365 0 0 -360z m890 0 l0 -360 -365 0 -365 0
0 360 0 360 365 0 365 0 0 -360z m885 145 c0 -181 -3 -224 -22 -310 -13 -55
-25 -121 -29 -147 l-5 -48 -340 0 -339 0 0 360 0 360 368 -2 367 -3 0 -210z
m215 210 c0 -7 -52 -85 -56 -85 -2 0 -4 20 -4 45 0 43 1 45 30 45 17 0 30 -2
30 -5z m-1990 -1220 l0 -355 -288 0 c-279 0 -289 1 -332 23 -26 13 -57 40 -75
65 l-30 44 -3 289 -3 289 365 0 366 0 0 -355z m890 0 l0 -355 -365 0 -365 0 0
355 0 355 365 0 365 0 0 -355z m843 245 c29 -192 98 -370 203 -522 l53 -78
-475 0 -474 0 0 355 0 355 338 0 338 0 17 -110z"/>
<path d="M3660 2511 c-140 -31 -271 -92 -357 -166 -48 -41 -56 -77 -25 -113
32 -39 62 -37 132 9 93 61 193 104 284 124 113 25 292 17 401 -19 251 -81 448
-288 517 -545 30 -110 30 -288 0 -394 -98 -347 -396 -577 -747 -578 -153 0
-238 21 -377 93 -143 74 -283 228 -346 381 -93 222 -80 460 37 681 37 69 38
85 10 120 -27 34 -77 36 -106 4 -43 -47 -109 -204 -134 -318 -22 -103 -17
-316 10 -415 88 -324 332 -573 653 -666 105 -30 315 -37 428 -15 470 96 799
545 740 1012 -47 380 -301 681 -665 790 -123 36 -328 43 -455 15z"/>
<path d="M3804 2129 c-18 -20 -19 -42 -22 -313 -2 -160 0 -306 3 -324 3 -18
15 -42 26 -53 18 -18 35 -19 342 -19 l324 0 21 23 c36 38 28 88 -19 112 -22
12 -79 15 -289 15 l-260 0 0 270 c0 257 -1 271 -20 290 -27 27 -81 26 -106 -1z"/>
</g>
</svg>
