<?xml version="1.0" standalone="no"?>
<!DOCTYPE svg PUBLIC "-//W3C//DTD SVG 20010904//EN"
 "http://www.w3.org/TR/2001/REC-SVG-20010904/DTD/svg10.dtd">
<svg version="1.0" xmlns="http://www.w3.org/2000/svg"
 width="512.000000pt" height="512.000000pt" viewBox="0 0 512.000000 512.000000"
 preserveAspectRatio="xMidYMid meet">

<g transform="translate(0.000000,512.000000) scale(0.100000,-0.100000)"
fill="#000000" stroke="none">
<path d="M693 4930 c-64 -13 -152 -60 -200 -108 -56 -56 -88 -112 -107 -187
-36 -134 -7 -256 86 -368 l40 -48 -23 -16 c-51 -35 -113 -109 -143 -172 -28
-60 -31 -75 -31 -166 0 -91 3 -106 31 -166 18 -37 49 -86 70 -109 30 -33 35
-44 24 -48 -36 -12 -122 -109 -153 -171 -30 -62 -32 -72 -32 -176 0 -97 3
-116 26 -165 15 -30 45 -76 67 -101 l41 -46 -44 -32 c-52 -38 -111 -115 -135
-179 -90 -236 57 -494 310 -542 32 -6 326 -10 756 -10 l704 0 0 -768 c0 -834
-1 -822 56 -935 35 -67 125 -155 195 -189 230 -112 503 -20 614 206 44 90 54
164 55 407 0 212 15 292 75 415 20 41 161 244 325 468 l291 396 654 2 c613 3
655 4 672 21 17 17 18 88 21 1383 l2 1365 -24 24 -25 25 -2078 -1 c-1143 -1
-2097 -5 -2120 -9z m2797 -1420 l0 -1290 -295 -403 c-162 -221 -312 -436 -334
-477 -33 -65 -59 -133 -86 -230 -4 -14 -11 -140 -15 -280 -9 -292 -15 -320
-87 -400 -153 -170 -420 -135 -520 68 l-28 57 -5 830 c-4 612 -8 835 -17 850
-11 20 -25 20 -795 25 -868 6 -813 1 -894 72 -108 95 -114 278 -12 380 52 51
102 71 196 78 72 4 87 9 103 29 41 51 8 105 -71 114 -147 18 -243 120 -244
262 -1 159 112 265 283 265 74 0 111 23 111 70 0 45 -21 62 -89 71 -75 11
-124 35 -173 86 -49 50 -70 105 -70 178 0 73 18 119 68 175 55 61 104 82 205
89 98 7 119 19 119 67 0 45 -29 74 -77 75 -88 2 -178 61 -219 144 -70 145 -2
314 148 366 50 17 119 18 1426 19 l1372 0 0 -1290z m1310 20 l0 -1270 -585 0
-585 0 0 1270 0 1270 585 0 585 0 0 -1270z"/>
<path d="M4150 4549 c-111 -22 -199 -92 -249 -198 -35 -75 -37 -201 -4 -273
30 -66 105 -143 172 -175 48 -24 69 -28 141 -28 71 0 94 4 141 26 202 95 267
335 138 514 -74 103 -215 159 -339 134z m167 -165 c104 -60 128 -204 51 -299
-64 -77 -158 -95 -249 -47 -126 66 -145 240 -35 328 71 58 153 64 233 18z"/>
</g>
</svg>
