<?xml version="1.0" standalone="no"?>
<!DOCTYPE svg PUBLIC "-//W3C//DTD SVG 20010904//EN"
 "http://www.w3.org/TR/2001/REC-SVG-20010904/DTD/svg10.dtd">
<svg version="1.0" xmlns="http://www.w3.org/2000/svg"
 width="512.000000pt" height="512.000000pt" viewBox="0 0 512.000000 512.000000"
 preserveAspectRatio="xMidYMid meet">

<g transform="translate(0.000000,512.000000) scale(0.100000,-0.100000)"
fill="#000000" stroke="none">
<path d="M585 5113 c-197 -26 -409 -177 -502 -358 -86 -167 -78 53 -78 -2195
0 -1909 1 -1998 18 -2055 70 -228 244 -403 477 -482 53 -17 140 -18 2015 -21
1347 -2 1982 1 2029 8 253 39 473 236 553 495 17 57 18 146 18 2055 0 1909 -1
1998 -18 2055 -79 256 -298 454 -547 494 -62 10 -3891 14 -3965 4z m3960 -248
c152 -40 280 -168 319 -320 14 -52 16 -277 16 -1985 0 -2126 4 -1987 -63
-2098 -37 -62 -103 -127 -167 -165 -104 -60 18 -57 -2090 -57 -1840 0 -1928 1
-1992 18 -151 42 -273 166 -312 317 -14 52 -16 277 -16 1985 0 1708 2 1933 16
1985 38 149 160 274 308 316 57 16 180 18 1991 18 1709 1 1938 -1 1990 -14z"/>
<path d="M1530 3601 c-88 -28 -140 -60 -201 -120 -63 -63 -101 -131 -124 -218
-22 -85 -22 -1321 0 -1406 44 -168 164 -290 334 -341 49 -14 161 -16 1020 -16
785 0 976 3 1017 14 167 44 295 174 339 343 22 85 22 1321 0 1406 -44 169
-172 299 -339 343 -41 11 -232 14 -1021 13 -902 0 -974 -1 -1025 -18z m1960
-235 c-37 -34 -917 -650 -930 -650 -17 0 -943 639 -948 654 -2 6 341 10 944
10 812 0 946 -2 934 -14z m200 -797 c0 -469 -3 -642 -12 -673 -16 -54 -93
-131 -144 -145 -54 -15 -1894 -15 -1948 0 -51 14 -128 91 -144 145 -9 31 -12
203 -12 668 0 344 2 626 5 626 2 0 245 -167 540 -371 350 -242 546 -372 568
-375 17 -3 43 -1 57 4 14 6 261 177 550 381 289 204 528 371 532 371 5 0 8
-284 8 -631z"/>
</g>
</svg>
