<?xml version="1.0" standalone="no"?>
<!DOCTYPE svg PUBLIC "-//W3C//DTD SVG 20010904//EN"
 "http://www.w3.org/TR/2001/REC-SVG-20010904/DTD/svg10.dtd">
<svg version="1.0" xmlns="http://www.w3.org/2000/svg"
 width="512.000000pt" height="512.000000pt" viewBox="0 0 512.000000 512.000000"
 preserveAspectRatio="xMidYMid meet">

<g transform="translate(0.000000,512.000000) scale(0.100000,-0.100000)"
fill="#000000" stroke="none">
<path d="M585 5113 c-197 -26 -409 -177 -502 -358 -86 -167 -78 53 -78 -2195
0 -1909 1 -1998 18 -2055 70 -228 244 -403 477 -482 53 -17 140 -18 2015 -21
1347 -2 1982 1 2029 8 253 39 473 236 553 495 17 57 18 146 18 2055 0 1909 -1
1998 -18 2055 -79 256 -298 454 -547 494 -62 10 -3891 14 -3965 4z m3960 -248
c152 -40 280 -168 319 -320 14 -52 16 -277 16 -1985 0 -2126 4 -1987 -63
-2098 -37 -62 -103 -127 -167 -165 -104 -60 18 -57 -2090 -57 -1840 0 -1928 1
-1992 18 -151 42 -273 166 -312 317 -14 52 -16 277 -16 1985 0 1708 2 1933 16
1985 38 149 160 274 308 316 57 16 180 18 1991 18 1709 1 1938 -1 1990 -14z"/>
<path d="M1270 3447 c-66 -23 -98 -104 -66 -166 34 -66 -68 -61 1356 -61 1424
0 1322 -5 1356 61 32 62 0 143 -66 166 -50 17 -2530 17 -2580 0z"/>
<path d="M1265 2671 c-44 -19 -70 -60 -70 -112 0 -42 5 -53 33 -81 l32 -33
1300 0 1300 0 32 33 c28 28 33 39 33 82 0 43 -5 54 -33 82 l-32 33 -1288 2
c-708 1 -1296 -2 -1307 -6z"/>
<path d="M1238 1877 c-53 -45 -63 -102 -25 -158 13 -19 38 -39 57 -46 26 -9
203 -12 665 -12 462 0 639 3 665 12 66 23 98 104 66 166 -34 64 2 61 -733 61
l-668 0 -27 -23z"/>
</g>
</svg>
