<?xml version="1.0" standalone="no"?>
<!DOCTYPE svg PUBLIC "-//W3C//DTD SVG 20010904//EN"
 "http://www.w3.org/TR/2001/REC-SVG-20010904/DTD/svg10.dtd">
<svg version="1.0" xmlns="http://www.w3.org/2000/svg"
 width="512.000000pt" height="512.000000pt" viewBox="0 0 512.000000 512.000000"
 preserveAspectRatio="xMidYMid meet">

<g transform="translate(0.000000,512.000000) scale(0.100000,-0.100000)"
fill="#000000" stroke="none">
<path d="M2560 4924 c-171 -46 -307 -204 -330 -384 -5 -41 -10 -159 -10 -261
0 -212 -15 -292 -75 -415 -20 -41 -161 -244 -325 -468 l-291 -396 -654 -2
c-613 -3 -655 -4 -672 -21 -17 -17 -18 -88 -21 -1383 l-2 -1365 25 -24 24 -25
2103 2 c2047 3 2104 4 2148 22 158 68 252 191 267 351 10 107 -24 207 -99 298
l-40 48 23 16 c51 35 113 109 143 172 28 60 31 75 31 166 0 91 -3 106 -31 166
-18 37 -49 86 -70 109 -30 33 -35 44 -24 48 36 12 122 109 153 171 30 62 32
72 32 176 0 97 -3 116 -26 165 -15 30 -45 76 -67 101 l-41 46 44 32 c52 38
111 115 135 179 90 236 -57 494 -310 542 -32 6 -326 10 -756 10 l-704 0 0 768
c0 834 1 822 -56 935 -52 102 -179 200 -295 226 -62 15 -164 12 -229 -5z m234
-144 c72 -27 139 -88 173 -158 l28 -57 5 -830 c4 -612 8 -835 17 -850 11 -20
25 -20 795 -25 868 -6 813 -1 894 -72 108 -95 114 -278 12 -380 -52 -51 -102
-71 -196 -78 -72 -4 -87 -9 -103 -29 -41 -51 -8 -105 71 -114 147 -18 243
-120 244 -262 1 -159 -112 -265 -283 -265 -74 0 -111 -23 -111 -70 0 -45 21
-62 89 -71 75 -11 124 -35 173 -86 49 -50 70 -105 70 -178 0 -73 -18 -119 -68
-175 -55 -61 -104 -82 -205 -89 -98 -7 -119 -19 -119 -67 0 -45 29 -74 78 -75
87 -2 177 -61 218 -144 54 -112 32 -229 -61 -314 -82 -76 15 -71 -1517 -71
l-1368 0 0 1290 0 1290 295 403 c162 221 312 436 334 477 33 65 59 133 86 230
4 14 11 140 15 280 6 200 12 265 25 302 30 84 124 171 215 199 49 14 138 9
194 -11z m-1304 -3190 l0 -1270 -585 0 -585 0 0 1270 0 1270 585 0 585 0 0
-1270z"/>
<path d="M813 1236 c-134 -44 -218 -138 -242 -272 -41 -227 164 -435 389 -394
120 22 207 89 259 199 35 75 37 201 4 273 -29 65 -105 143 -168 174 -65 31
-178 41 -242 20z m188 -154 c127 -66 145 -238 34 -329 -186 -153 -436 96 -283
282 64 77 158 95 249 47z"/>
</g>
</svg>
