<?xml version="1.0" standalone="no"?>
<!DOCTYPE svg PUBLIC "-//W3C//DTD SVG 20010904//EN"
 "http://www.w3.org/TR/2001/REC-SVG-20010904/DTD/svg10.dtd">
<svg version="1.0" xmlns="http://www.w3.org/2000/svg"
 width="512.000000pt" height="512.000000pt" viewBox="0 0 512.000000 512.000000"
 preserveAspectRatio="xMidYMid meet">

<g transform="translate(0.000000,512.000000) scale(0.100000,-0.100000)"
fill="#000000" stroke="none">
<path d="M585 5113 c-197 -26 -409 -177 -502 -358 -86 -167 -78 53 -78 -2195
0 -1909 1 -1998 18 -2055 70 -228 244 -403 477 -482 53 -17 140 -18 2015 -21
1347 -2 1982 1 2029 8 253 39 473 236 553 495 17 57 18 146 18 2055 0 1909 -1
1998 -18 2055 -79 256 -298 454 -547 494 -62 10 -3891 14 -3965 4z m3960 -248
c152 -40 280 -168 319 -320 14 -52 16 -277 16 -1985 0 -2126 4 -1987 -63
-2098 -37 -62 -103 -127 -167 -165 -104 -60 18 -57 -2090 -57 -1840 0 -1928 1
-1992 18 -151 42 -273 166 -312 317 -14 52 -16 277 -16 1985 0 1708 2 1933 16
1985 38 149 160 274 308 316 57 16 180 18 1991 18 1709 1 1938 -1 1990 -14z"/>
<path d="M2134 3915 c-121 -26 -247 -108 -320 -207 -95 -130 -114 -206 -114
-475 0 -229 10 -203 -85 -218 -111 -18 -224 -109 -278 -222 l-32 -68 -3 -594
c-2 -522 -1 -601 14 -650 32 -113 108 -200 223 -255 l66 -31 955 0 955 0 66
31 c115 55 191 142 223 255 15 49 16 128 14 650 l-3 594 -32 68 c-54 113 -167
204 -278 222 -95 15 -85 -11 -85 218 0 232 -10 291 -68 401 -72 138 -218 249
-369 281 -93 20 -759 20 -849 0z m824 -240 c73 -22 150 -88 187 -160 l30 -58
3 -214 3 -213 -620 0 -621 0 0 193 c0 215 9 265 59 334 35 49 108 101 165 119
65 20 725 19 794 -1z m549 -917 c76 -50 73 -27 73 -656 l0 -559 -22 -33 c-13
-18 -36 -43 -51 -54 -28 -21 -31 -21 -947 -21 -916 0 -919 0 -947 21 -15 11
-38 36 -50 54 l-23 33 0 559 c0 496 2 564 16 594 18 37 59 71 102 84 15 5 428
8 918 7 l890 -2 41 -27z"/>
<path d="M2497 2560 c-62 -16 -112 -47 -155 -95 -115 -130 -91 -323 52 -426
l41 -30 5 -145 5 -144 33 -32 c28 -28 39 -33 82 -33 43 0 54 5 82 33 l33 32 5
144 5 145 41 30 c145 104 167 298 48 430 -68 76 -184 114 -277 91z m91 -246
c30 -21 29 -59 -3 -80 -23 -15 -27 -15 -50 0 -32 21 -33 59 -3 80 12 9 25 16
28 16 3 0 16 -7 28 -16z"/>
</g>
</svg>
