<?xml version="1.0" standalone="no"?>
<!DOCTYPE svg PUBLIC "-//W3C//DTD SVG 20010904//EN"
 "http://www.w3.org/TR/2001/REC-SVG-20010904/DTD/svg10.dtd">
<svg version="1.0" xmlns="http://www.w3.org/2000/svg"
 width="512.000000pt" height="512.000000pt" viewBox="0 0 512.000000 512.000000"
 preserveAspectRatio="xMidYMid meet">

<g transform="translate(0.000000,512.000000) scale(0.100000,-0.100000)"
fill="#000000" stroke="none">
<path d="M585 5113 c-197 -26 -409 -177 -502 -358 -86 -167 -78 53 -78 -2195
0 -1909 1 -1998 18 -2055 70 -228 244 -403 477 -482 53 -17 140 -18 2015 -21
1347 -2 1982 1 2029 8 253 39 473 236 553 495 17 57 18 146 18 2055 0 1909 -1
1998 -18 2055 -79 256 -298 454 -547 494 -62 10 -3891 14 -3965 4z m3960 -248
c152 -40 280 -168 319 -320 14 -52 16 -277 16 -1985 0 -2126 4 -1987 -63
-2098 -37 -62 -103 -127 -167 -165 -104 -60 18 -57 -2090 -57 -1840 0 -1928 1
-1992 18 -151 42 -273 166 -312 317 -14 52 -16 277 -16 1985 0 1708 2 1933 16
1985 38 149 160 274 308 316 57 16 180 18 1991 18 1709 1 1938 -1 1990 -14z"/>
<path d="M1760 4211 c-84 -26 -150 -82 -191 -161 l-24 -45 0 -1435 c0 -1384 1
-1437 19 -1484 24 -63 77 -121 140 -154 l51 -27 805 0 805 0 51 27 c63 33 116
91 140 154 18 47 19 100 19 1474 0 1374 -1 1427 -19 1474 -24 63 -77 121 -140
154 l-51 27 -790 2 c-434 1 -801 -2 -815 -6z m1564 -253 c14 -20 16 -129 16
-970 l0 -948 -780 0 -780 0 0 952 c0 871 1 953 17 970 15 17 52 18 764 18
l748 0 15 -22z m16 -2466 c0 -262 -2 -311 -16 -330 l-15 -22 -746 0 c-681 0
-748 1 -765 17 -17 15 -18 39 -18 330 l0 313 780 0 780 0 0 -308z"/>
<path d="M2372 3764 c-78 -55 -65 -173 24 -210 40 -17 260 -19 315 -4 73 20
109 102 75 168 -30 58 -44 62 -226 62 -134 0 -170 -3 -188 -16z"/>
<path d="M2455 1756 c-165 -77 -205 -283 -81 -414 53 -57 101 -77 186 -77 85
0 133 20 186 77 45 47 65 93 71 160 14 146 -109 278 -257 278 -37 0 -72 -8
-105 -24z m121 -227 c10 -17 -13 -36 -27 -22 -12 12 -4 33 11 33 5 0 12 -5 16
-11z"/>
</g>
</svg>
