<?xml version="1.0" standalone="no"?>
<!DOCTYPE svg PUBLIC "-//W3C//DTD SVG 20010904//EN"
 "http://www.w3.org/TR/2001/REC-SVG-20010904/DTD/svg10.dtd">
<svg version="1.0" xmlns="http://www.w3.org/2000/svg"
 width="512.000000pt" height="512.000000pt" viewBox="0 0 512.000000 512.000000"
 preserveAspectRatio="xMidYMid meet">

<g transform="translate(0.000000,512.000000) scale(0.100000,-0.100000)"
fill="#000000" stroke="none">
<path d="M585 5113 c-197 -26 -409 -177 -502 -358 -86 -167 -78 53 -78 -2195
0 -1909 1 -1998 18 -2055 70 -228 244 -403 477 -482 53 -17 140 -18 2015 -21
1347 -2 1982 1 2029 8 253 39 473 236 553 495 17 57 18 146 18 2055 0 1909 -1
1998 -18 2055 -79 256 -298 454 -547 494 -62 10 -3891 14 -3965 4z m3960 -248
c152 -40 280 -168 319 -320 14 -52 16 -277 16 -1985 0 -2126 4 -1987 -63
-2098 -37 -62 -103 -127 -167 -165 -104 -60 18 -57 -2090 -57 -1840 0 -1928 1
-1992 18 -151 42 -273 166 -312 317 -14 52 -16 277 -16 1985 0 1708 2 1933 16
1985 38 149 160 274 308 316 57 16 180 18 1991 18 1709 1 1938 -1 1990 -14z"/>
<path d="M2420 3915 c-141 -32 -295 -129 -377 -237 -96 -127 -136 -248 -137
-408 -1 -187 56 -323 194 -460 134 -134 274 -193 460 -193 186 0 327 59 460
193 138 137 195 273 194 460 0 119 -19 200 -66 294 -82 163 -210 273 -387 333
-96 32 -244 40 -341 18z m245 -241 c161 -41 280 -173 308 -341 36 -218 -127
-437 -351 -473 -272 -44 -523 209 -473 477 46 249 276 400 516 337z"/>
<path d="M2395 2569 c-182 -24 -375 -97 -536 -204 -289 -193 -485 -495 -544
-839 -13 -80 -14 -108 -5 -147 24 -100 110 -175 212 -186 45 -4 59 -1 88 19
88 60 61 194 -42 215 -24 5 -26 9 -21 37 16 90 36 166 63 233 272 680 1152
861 1671 344 130 -129 236 -317 273 -481 28 -129 28 -127 -2 -133 -103 -21
-130 -155 -42 -215 29 -20 43 -23 88 -19 102 11 188 86 212 186 9 39 8 67 -5
147 -114 668 -736 1128 -1410 1043z"/>
</g>
</svg>
