<?xml version="1.0" standalone="no"?>
<!DOCTYPE svg PUBLIC "-//W3C//DTD SVG 20010904//EN"
 "http://www.w3.org/TR/2001/REC-SVG-20010904/DTD/svg10.dtd">
<svg version="1.0" xmlns="http://www.w3.org/2000/svg"
 width="512.000000pt" height="512.000000pt" viewBox="0 0 512.000000 512.000000"
 preserveAspectRatio="xMidYMid meet">

<g transform="translate(0.000000,512.000000) scale(0.100000,-0.100000)"
fill="#000000" stroke="none">
<path d="M259 5091 l-29 -29 0 -671 c0 -470 3 -677 11 -694 6 -14 22 -30 36
-36 34 -16 4532 -16 4566 0 14 6 30 22 36 36 8 17 11 224 11 694 l0 671 -29
29 -29 29 -2272 0 -2272 0 -29 -29z m3161 -706 l0 -575 -1510 0 -1510 0 0 575
0 575 1510 0 1510 0 0 -575z m1300 0 l0 -575 -570 0 -570 0 0 575 0 575 570 0
570 0 0 -575z"/>
<path d="M3990 4781 c-89 -27 -168 -94 -210 -177 -35 -70 -40 -187 -10 -267
26 -69 94 -143 165 -177 66 -33 207 -36 273 -6 l42 19 99 -96 c83 -82 103 -97
130 -97 42 0 81 38 81 80 0 26 -17 48 -96 130 l-96 99 21 56 c46 123 17 251
-78 346 -69 69 -141 99 -234 98 -34 0 -73 -4 -87 -8z m153 -165 c49 -20 95
-78 102 -130 9 -60 -8 -107 -55 -150 -141 -127 -346 36 -257 204 40 75 132
109 210 76z"/>
<path d="M269 3417 c-39 -30 -39 -37 -39 -727 l0 -672 29 -29 29 -29 2272 0
2272 0 29 29 29 29 0 672 c0 690 0 697 -39 727 -23 18 -4559 18 -4582 0z
m4451 -722 l0 -575 -2160 0 -2160 0 0 575 0 575 2160 0 2160 0 0 -575z"/>
<path d="M581 3074 c-20 -26 -21 -38 -21 -381 l0 -354 25 -24 24 -25 359 0
359 0 24 26 24 26 3 316 c4 351 1 393 -31 422 -20 19 -36 20 -383 20 l-363 0
-20 -26z m629 -379 l0 -245 -245 0 -245 0 0 245 0 245 245 0 245 0 0 -245z"/>
<path d="M1603 2993 c-30 -6 -63 -49 -63 -82 1 -33 19 -57 54 -71 38 -14 2874
-14 2912 0 59 23 73 89 28 131 l-26 24 -1441 1 c-793 1 -1452 -1 -1464 -3z"/>
<path d="M1585 2548 c-51 -29 -60 -84 -20 -123 l24 -25 746 0 746 0 24 25 c40
39 32 96 -16 120 -24 13 -136 15 -756 15 -529 -1 -733 -4 -748 -12z"/>
<path d="M611 1789 c-50 -20 -50 -20 -50 -399 0 -264 3 -359 12 -371 28 -37
49 -39 401 -39 l345 0 28 24 28 24 3 334 c2 223 0 345 -8 370 -19 67 -26 68
-402 67 -189 0 -343 -4 -357 -10z m599 -404 l0 -245 -245 0 -245 0 0 245 0
245 245 0 245 0 0 -245z"/>
<path d="M1585 1678 c-50 -29 -59 -81 -21 -125 l24 -28 1462 0 1462 0 24 28
c39 45 29 98 -23 125 -31 17 -2899 17 -2928 0z"/>
<path d="M1565 1225 c-34 -33 -33 -78 1 -110 l27 -25 744 0 744 0 24 25 c16
15 25 36 25 55 0 19 -9 40 -25 55 l-24 25 -746 0 -746 0 -24 -25z"/>
<path d="M620 813 c-8 -3 -25 -15 -37 -26 l-23 -20 0 -353 c0 -194 3 -360 6
-369 16 -42 46 -45 408 -45 l345 0 28 24 28 24 3 334 c2 227 0 345 -8 371 -19
65 -32 67 -407 66 -180 0 -335 -3 -343 -6z m590 -408 l0 -245 -245 0 -245 0 0
245 0 245 245 0 245 0 0 -245z"/>
<path d="M1591 699 c-54 -22 -67 -80 -27 -126 l24 -28 1462 0 1462 0 24 28
c39 45 29 98 -23 125 -28 15 -2885 16 -2922 1z"/>
<path d="M1565 245 c-16 -15 -25 -36 -25 -55 0 -19 9 -40 25 -55 l24 -25 746
0 746 0 24 25 c16 15 25 36 25 55 0 19 -9 40 -25 55 l-24 25 -746 0 -746 0
-24 -25z"/>
</g>
</svg>
