<?xml version="1.0" standalone="no"?>
<!DOCTYPE svg PUBLIC "-//W3C//DTD SVG 20010904//EN"
 "http://www.w3.org/TR/2001/REC-SVG-20010904/DTD/svg10.dtd">
<svg version="1.0" xmlns="http://www.w3.org/2000/svg"
 width="512.000000pt" height="512.000000pt" viewBox="0 0 512.000000 512.000000"
 preserveAspectRatio="xMidYMid meet">

<g transform="translate(0.000000,512.000000) scale(0.100000,-0.100000)"
fill="#000000" stroke="none">
<path d="M822 4305 c-235 -51 -437 -254 -487 -491 -21 -100 -21 -1127 0 -1227
54 -258 278 -464 541 -500 l84 -11 0 -254 c0 -282 4 -301 65 -347 38 -30 82
-40 132 -30 33 6 79 48 353 320 l315 314 590 3 c578 3 591 4 655 25 96 33 186
90 260 163 75 76 120 148 158 252 l27 73 0 605 0 605 -27 73 c-60 167 -173
297 -319 370 -147 74 -100 72 -1254 71 -830 0 -1042 -3 -1093 -14z m2200 -338
c65 -32 121 -89 152 -156 21 -45 21 -55 21 -611 0 -556 0 -566 -21 -611 -31
-67 -87 -124 -152 -156 l-57 -28 -635 -5 c-349 -3 -637 -7 -639 -8 -3 -1 -96
-93 -207 -203 l-203 -202 -3 156 c-3 139 -5 159 -24 183 -47 63 -63 69 -228
75 -133 4 -158 8 -201 29 -63 30 -124 92 -156 155 l-24 50 -3 544 c-2 467 -1
551 13 596 28 97 116 185 212 211 38 10 257 12 1073 11 l1025 -2 57 -28z"/>
<path d="M3680 3521 l0 -160 283 -3 c263 -3 285 -4 328 -24 67 -31 124 -87
156 -152 l28 -57 0 -565 0 -565 -28 -57 c-32 -65 -90 -121 -156 -151 -38 -17
-73 -22 -198 -27 -164 -5 -180 -11 -227 -74 -19 -24 -21 -44 -24 -183 l-3
-156 -203 202 c-111 110 -204 202 -207 203 -2 1 -290 5 -639 8 l-635 5 -64 35
c-40 21 -75 50 -95 77 -26 36 -37 42 -66 43 -32 0 -46 -10 -129 -94 -65 -66
-91 -98 -85 -107 46 -77 162 -175 259 -219 127 -58 152 -60 762 -60 l557 0
316 -314 c274 -273 320 -315 353 -321 50 -10 94 0 132 30 61 46 65 65 65 347
l0 254 84 11 c213 29 396 163 492 360 64 131 65 150 62 787 l-3 571 -27 73
c-61 167 -176 300 -320 372 -127 62 -181 70 -495 70 l-273 0 0 -159z"/>
</g>
</svg>
