<?xml version="1.0" standalone="no"?>
<!DOCTYPE svg PUBLIC "-//W3C//DTD SVG 20010904//EN"
 "http://www.w3.org/TR/2001/REC-SVG-20010904/DTD/svg10.dtd">
<svg version="1.0" xmlns="http://www.w3.org/2000/svg"
 width="512.000000pt" height="512.000000pt" viewBox="0 0 512.000000 512.000000"
 preserveAspectRatio="xMidYMid meet">

<g transform="translate(0.000000,512.000000) scale(0.100000,-0.100000)"
fill="#000000" stroke="none">
<path d="M585 5113 c-197 -26 -409 -177 -502 -358 -86 -167 -78 53 -78 -2195
0 -1909 1 -1998 18 -2055 70 -228 244 -403 477 -482 53 -17 140 -18 2015 -21
1347 -2 1982 1 2029 8 253 39 473 236 553 495 17 57 18 146 18 2055 0 1909 -1
1998 -18 2055 -79 256 -298 454 -547 494 -62 10 -3891 14 -3965 4z m3960 -248
c152 -40 280 -168 319 -320 14 -52 16 -277 16 -1985 0 -2126 4 -1987 -63
-2098 -37 -62 -103 -127 -167 -165 -104 -60 18 -57 -2090 -57 -1840 0 -1928 1
-1992 18 -151 42 -273 166 -312 317 -14 52 -16 277 -16 1985 0 1708 2 1933 16
1985 38 149 160 274 308 316 57 16 180 18 1991 18 1709 1 1938 -1 1990 -14z"/>
<path d="M1965 3923 c-126 -18 -292 -91 -390 -170 -130 -106 -232 -262 -277
-428 -22 -78 -23 -94 -23 -600 0 -509 1 -522 23 -600 45 -161 119 -283 238
-395 l68 -63 -31 -181 c-26 -151 -29 -187 -19 -216 13 -40 66 -80 105 -80 15
0 231 74 479 165 l453 165 270 0 c299 0 368 9 496 61 127 53 252 155 338 274
57 80 89 146 122 252 l28 88 0 525 c0 512 -1 527 -23 605 -77 278 -286 492
-562 576 -74 23 -82 23 -670 25 -327 1 -608 0 -625 -3z m1196 -247 c198 -42
359 -191 422 -391 21 -68 22 -82 22 -560 0 -542 1 -535 -67 -669 -45 -89 -154
-194 -248 -239 -111 -52 -150 -57 -462 -57 l-280 0 -360 -131 c-197 -72 -361
-129 -363 -127 -3 3 4 56 16 120 26 145 19 167 -68 226 -116 79 -197 190 -240
328 -16 54 -18 102 -18 549 0 478 1 492 22 560 63 197 224 348 417 390 91 20
1114 20 1207 1z"/>
</g>
</svg>
