<?xml version="1.0" standalone="no"?>
<!DOCTYPE svg PUBLIC "-//W3C//DTD SVG 20010904//EN"
 "http://www.w3.org/TR/2001/REC-SVG-20010904/DTD/svg10.dtd">
<svg version="1.0" xmlns="http://www.w3.org/2000/svg"
 width="512.000000pt" height="512.000000pt" viewBox="0 0 512.000000 512.000000"
 preserveAspectRatio="xMidYMid meet">

<g transform="translate(0.000000,512.000000) scale(0.100000,-0.100000)"
fill="#000000" stroke="none">
<path d="M1204 4900 c-213 -32 -384 -187 -439 -397 -23 -86 -23 -3800 0 -3886
46 -177 181 -321 354 -379 65 -22 73 -23 801 -26 510 -2 746 0 772 8 91 27
107 146 25 192 -17 10 -196 14 -777 18 l-755 5 -43 23 c-66 35 -119 88 -149
150 l-28 57 0 1895 0 1895 28 57 c30 62 83 115 149 150 l43 23 1007 3 1007 2
3 -357 c3 -353 3 -359 27 -411 29 -65 112 -143 178 -168 42 -16 89 -19 393
-22 252 -2 347 -6 352 -15 4 -7 8 -346 8 -755 0 -826 -3 -789 67 -818 43 -19
93 -5 123 33 20 25 20 39 20 800 l0 774 -25 76 c-14 41 -41 98 -60 126 -18 29
-213 232 -432 453 -339 342 -407 405 -462 434 -132 68 -64 64 -1151 66 -542 1
-1008 -2 -1036 -6z m2540 -948 c-221 -2 -260 0 -281 14 -48 31 -53 64 -53 331
l0 248 295 -295 295 -295 -256 -3z"/>
<path d="M1454 3936 c-41 -18 -64 -52 -64 -96 0 -45 23 -78 66 -96 49 -21
1199 -21 1248 0 43 18 66 51 66 96 0 45 -23 78 -66 96 -49 20 -1204 20 -1250
0z"/>
<path d="M1774 3296 c-41 -18 -64 -52 -64 -96 0 -45 23 -78 66 -96 50 -21
1838 -21 1888 0 43 18 66 51 66 96 0 45 -23 78 -66 96 -49 20 -1843 20 -1890
0z"/>
<path d="M1419 2741 c-47 -48 -37 -130 21 -164 26 -16 119 -17 1120 -17 1001
0 1094 1 1120 17 58 34 68 116 21 164 l-29 29 -1112 0 -1112 0 -29 -29z"/>
<path d="M3165 2341 c-254 -42 -475 -174 -625 -372 -128 -171 -191 -357 -193
-569 -2 -278 89 -499 287 -695 264 -263 652 -345 1010 -214 l80 29 231 -229
c263 -262 280 -275 405 -275 66 -1 84 3 142 32 151 74 216 239 157 399 -20 52
-45 82 -254 293 l-232 235 24 57 c143 349 60 760 -209 1031 -123 124 -279 214
-448 257 -93 25 -287 35 -375 21z m370 -244 c116 -38 199 -91 295 -187 96 -96
148 -178 187 -295 24 -71 27 -96 27 -225 1 -114 -3 -158 -17 -205 -65 -209
-201 -371 -392 -465 -118 -59 -189 -75 -330 -74 -140 0 -210 16 -330 75 -295
144 -462 477 -402 796 31 162 94 280 214 400 68 68 98 90 185 133 135 66 200
80 358 76 102 -2 140 -8 205 -29z m727 -1514 c124 -125 199 -208 203 -225 17
-69 -30 -128 -103 -128 l-46 0 -204 203 -204 203 74 72 c40 39 75 72 78 72 3
0 94 -89 202 -197z"/>
<path d="M2817 1470 c-39 -31 -50 -76 -37 -154 32 -203 155 -357 339 -427 76
-28 177 -42 217 -29 87 29 101 149 22 191 -11 6 -49 15 -84 20 -85 12 -151 46
-206 107 -45 51 -78 128 -78 183 0 41 -24 93 -51 113 -32 22 -91 20 -122 -4z"/>
<path d="M1438 2223 c-56 -35 -66 -117 -19 -164 l29 -29 356 0 c240 0 363 4
380 11 60 28 71 122 20 170 l-26 24 -356 2 c-320 3 -360 1 -384 -14z"/>
<path d="M1454 1696 c-41 -18 -64 -52 -64 -96 0 -45 23 -78 66 -96 51 -21 463
-20 509 2 31 14 65 64 65 94 0 30 -34 80 -65 94 -45 22 -463 23 -511 2z"/>
<path d="M1419 1141 c-47 -48 -37 -130 21 -164 24 -15 66 -17 320 -17 254 0
296 2 320 17 58 34 68 116 21 164 l-29 29 -312 0 -312 0 -29 -29z"/>
</g>
</svg>
