<?xml version="1.0" standalone="no"?>
<!DOCTYPE svg PUBLIC "-//W3C//DTD SVG 20010904//EN"
 "http://www.w3.org/TR/2001/REC-SVG-20010904/DTD/svg10.dtd">
<svg version="1.0" xmlns="http://www.w3.org/2000/svg"
 width="512.000000pt" height="512.000000pt" viewBox="0 0 512.000000 512.000000"
 preserveAspectRatio="xMidYMid meet">

<g transform="translate(0.000000,512.000000) scale(0.100000,-0.100000)"
fill="#000000" stroke="none">
<path d="M1935 5101 c-48 -22 -69 -44 -90 -94 -13 -32 -15 -300 -15 -2447 0
-2147 2 -2415 15 -2447 21 -50 42 -72 90 -94 37 -17 79 -19 625 -19 546 0 588
2 625 19 48 22 69 44 90 94 13 32 15 300 15 2447 0 2147 -2 2415 -15 2447 -21
50 -42 72 -90 94 -37 17 -79 19 -625 19 -546 0 -588 -2 -625 -19z m995 -2541
l0 -2190 -370 0 -370 0 0 2190 0 2190 370 0 370 0 0 -2190z"/>
<path d="M3790 3648 c-52 -15 -86 -43 -109 -91 l-21 -43 0 -1688 c0 -1659 0
-1687 20 -1725 23 -47 60 -77 109 -92 24 -7 233 -9 622 -7 l585 3 41 27 c25
16 49 44 62 71 l21 44 -2 1695 -3 1696 -31 39 c-17 21 -46 47 -65 58 -33 19
-54 20 -614 22 -366 1 -593 -2 -615 -9z m960 -1818 l0 -1460 -365 0 -365 0 0
1460 0 1460 365 0 365 0 0 -1460z"/>
<path d="M125 3099 c-38 -11 -94 -64 -111 -106 -12 -27 -14 -280 -14 -1440 l0
-1407 21 -44 c13 -26 38 -54 62 -70 l41 -27 585 -3 c389 -2 598 0 622 7 49 15
86 45 109 92 20 37 20 65 20 1454 0 1370 -1 1417 -19 1453 -23 46 -46 67 -94
87 -31 13 -115 15 -614 14 -318 0 -592 -5 -608 -10z m975 -1544 l0 -1185 -365
0 -365 0 0 1185 0 1185 365 0 365 0 0 -1185z"/>
</g>
</svg>
